<?xml version="1.0" encoding="UTF-8"?>
<svg xmlns="http://www.w3.org/2000/svg" xmlns:xlink="http://www.w3.org/1999/xlink" width="511.08pt" height="469pt" viewBox="0 0 511.08 469" version="1.1">
<defs>
<clipPath id="clip1">
  <path d="M 0 0 L 511.078125 0 L 511.078125 469 L 0 469 Z M 0 0 "/>
</clipPath>
</defs>
<g id="surface1">
<g clip-path="url(#clip1)" clip-rule="nonzero">
<path style=" stroke:none;fill-rule:evenodd;fill:rgb(0.799561%,0.799561%,0.799561%);fill-opacity:1;" d="M 511.058594 65.421875 C 511.441406 116.402344 507.578125 168.511719 494.578125 217.953125 C 479.980469 273.460938 459.011719 321.632813 422.765625 366.582031 L 422.386719 367.054688 L 398.730469 392.808594 L 398.246094 393.265625 C 396.351563 395.054688 394.515625 396.894531 392.53125 398.589844 C 390.761719 400.105469 389.125 401.765625 387.324219 403.261719 C 385.394531 404.863281 383.585938 406.585938 381.597656 408.125 C 369.929688 417.171875 358.890625 425.96875 346.0625 433.414063 C 337.539063 438.359375 328.90625 443.058594 320.050781 447.378906 C 310.671875 451.953125 300.957031 455.800781 291.140625 459.316406 C 286.074219 461.132813 280.925781 462.6875 275.785156 464.265625 C 269.230469 466.277344 259.117188 469.828125 252.398438 468.824219 L 251.285156 468.660156 L 235.183594 464.257813 L 235.019531 464.210938 C 201.3125 454.378906 167.621094 437.652344 139.761719 416.253906 C 130.222656 408.925781 120.925781 401.257813 112.34375 392.816406 C 111.085938 391.578125 109.894531 390.03125 108.582031 388.902344 C 106.230469 386.882813 104.230469 384.636719 102.171875 382.332031 C 97.445313 377.046875 92.613281 371.867188 88.15625 366.347656 C 22.476563 284.980469 -0.546875 177.839844 0.0117188 75.257813 L 0.171875 45.5 L 20.066406 46.6875 C 24.949219 46.980469 29.933594 47.605469 34.824219 47.425781 L 35.152344 47.414063 L 35.480469 47.410156 C 49.835938 47.378906 64.074219 44.527344 76.59375 37.277344 C 86.125 31.757813 93.535156 24.058594 96.800781 13.363281 L 100.882813 -0.00390625 L 410.351563 0.015625 L 414.371094 13.492188 C 421.675781 37.960938 452.558594 47.398438 475.414063 47.410156 C 480.695313 47.414063 485.976563 46.96875 491.25 46.710938 L 510.910156 45.738281 L 511.058594 65.421875 "/>
</g>
<path style=" stroke:none;fill-rule:evenodd;fill:rgb(99.598694%,80.39856%,1.199341%);fill-opacity:1;" d="M 505.386719 65.464844 C 505.769531 115.804688 501.933594 167.695313 489.09375 216.511719 C 474.648438 271.445313 454.191406 318.578125 418.355469 363.023438 L 418.085938 363.351563 L 394.691406 388.824219 L 394.355469 389.144531 C 392.523438 390.871094 390.765625 392.644531 388.847656 394.28125 C 387.097656 395.78125 385.488281 397.414063 383.703125 398.894531 C 381.816406 400.460938 380.074219 402.132813 378.121094 403.644531 C 366.269531 412.835938 356.382813 420.871094 343.214844 428.511719 C 334.699219 433.457031 326.421875 437.964844 317.566406 442.28125 C 308.382813 446.761719 298.84375 450.535156 289.226563 453.980469 C 284.300781 455.746094 279.132813 457.308594 274.125 458.84375 C 268.851563 460.460938 258.546875 464.007813 253.234375 463.21875 L 252.457031 463.101563 L 236.722656 458.800781 L 236.609375 458.769531 C 203.660156 449.113281 170.425781 432.660156 143.214844 411.757813 C 133.863281 404.570313 124.734375 397.050781 116.320313 388.773438 C 114.996094 387.472656 113.644531 385.78125 112.277344 384.605469 C 110.074219 382.710938 108.316406 380.703125 106.398438 378.554688 C 101.714844 373.3125 96.992188 368.269531 92.566406 362.785156 C 27.714844 282.445313 5.128906 176.550781 5.679688 75.289063 L 5.808594 51.515625 L 19.726563 52.347656 C 24.769531 52.648438 29.988281 53.277344 35.03125 53.089844 L 35.261719 53.082031 L 35.492188 53.082031 C 50.863281 53.050781 66.039063 49.9375 79.433594 42.183594 C 90.21875 35.9375 98.53125 27.109375 102.222656 15.019531 L 105.078125 5.664063 L 406.125 5.683594 L 408.941406 15.113281 C 417.023438 42.199219 449.820313 53.066406 475.410156 53.082031 C 480.765625 53.085938 486.179688 52.636719 491.53125 52.371094 L 505.285156 51.691406 L 505.386719 65.464844 "/>
<path style=" stroke:none;fill-rule:evenodd;fill:rgb(92.89856%,12.199402%,14.099121%);fill-opacity:1;" d="M 18.886719 75.359375 C 18.679688 181.601563 43.570313 281.0625 102.84375 354.488281 C 107.746094 360.5625 111.429688 364.363281 116.246094 369.753906 C 117.785156 371.476563 119.046875 373.007813 120.886719 374.585938 C 122.53125 376 123.910156 377.714844 125.582031 379.359375 C 133.542969 387.1875 142.296875 394.394531 151.261719 401.28125 C 176.597656 420.742188 208.484375 436.761719 240.320313 446.09375 L 255.179688 450.152344 C 257.433594 450.488281 281.332031 442.777344 284.777344 441.546875 C 294.136719 438.191406 303.269531 434.558594 311.777344 430.410156 C 322.109375 425.371094 326.792969 422.773438 336.585938 417.089844 C 351.4375 408.46875 358.09375 402.460938 370.03125 393.207031 C 371.902344 391.757813 373.449219 390.242188 375.273438 388.730469 C 377.070313 387.238281 378.515625 385.738281 380.261719 384.246094 C 381.988281 382.765625 383.664063 381.070313 385.28125 379.542969 L 408.074219 354.730469 C 442.511719 312.019531 462.121094 267.140625 476.320313 213.148438 C 488.578125 166.546875 492.558594 115.617188 492.179688 65.5625 C 486.917969 65.824219 480.550781 66.292969 475.40625 66.289063 C 442.546875 66.273438 405.953125 51.296875 396.28125 18.890625 L 114.855469 18.875 C 110.125 34.363281 99.570313 45.785156 86.054688 53.613281 C 72.023438 61.738281 55.125 66.246094 35.519531 66.289063 C 30.011719 66.492188 24.449219 65.859375 18.941406 65.53125 L 18.886719 75.359375 "/>
<path style=" stroke:none;fill-rule:evenodd;fill:rgb(0.799561%,0.799561%,0.799561%);fill-opacity:1;" d="M 136.554688 271.070313 C 135.914063 277.3125 135.921875 284.191406 136.804688 290.414063 C 137.730469 296.933594 139.28125 300.511719 141.402344 305.828125 C 136.59375 305.132813 127.382813 300.589844 123.375 298.570313 C 117.339844 295.53125 112.914063 291.929688 108.117188 288.578125 C 108.390625 290.039063 111.0625 295.210938 111.882813 296.855469 C 116.132813 305.371094 120.53125 311.945313 126.199219 319.171875 C 127.144531 320.378906 128.039063 321.492188 129.007813 322.59375 L 137.8125 331.980469 C 142.414063 336.507813 146.773438 339.347656 151.191406 343.058594 C 151.011719 343.308594 151.101563 343.191406 150.820313 343.460938 C 150.234375 344.023438 149.507813 344.386719 149.023438 345.054688 C 150.203125 345.914063 159.046875 348.894531 161.246094 349.671875 C 193.199219 360.96875 225.003906 368.394531 259.824219 368.507813 C 295.855469 368.625 325.960938 361.113281 358.652344 349.671875 L 370.835938 345.160156 C 370.132813 343.84375 366.640625 342.253906 365.46875 341.066406 C 365.6875 340.710938 365.496094 340.96875 365.816406 340.644531 L 373.472656 334.335938 C 383.007813 325.714844 391.847656 315.035156 398.417969 303.695313 C 399.90625 301.121094 405.523438 290.804688 406.058594 288.324219 L 398.730469 293.546875 C 392.730469 297.632813 379.632813 304.386719 372.761719 305.585938 C 373.449219 303.359375 374.753906 300.984375 375.574219 298.292969 C 378.140625 289.914063 378.5 279.5625 377.597656 270.871094 C 376.976563 271.082031 374.726563 273.914063 374.21875 274.515625 C 373.636719 275.199219 372.976563 275.753906 372.386719 276.421875 C 359.34375 291.066406 343.699219 298.640625 324.523438 304.335938 C 320.828125 305.429688 317.117188 306.507813 313.34375 307.605469 C 309.960938 308.585938 305.59375 309.71875 302.417969 310.988281 L 306.671875 322.902344 C 291.429688 326.585938 273.519531 328.289063 257.082031 328.226563 C 248.261719 328.195313 239.71875 327.613281 231.152344 326.621094 C 227.15625 326.160156 210.585938 323.816406 207.652344 322.578125 L 211.652344 311.222656 C 208.324219 309.941406 204.222656 308.886719 200.613281 307.820313 C 177.25 300.925781 160.515625 296.246094 143.304688 278.382813 L 136.554688 271.070313 "/>
<path style=" stroke:none;fill-rule:evenodd;fill:rgb(99.598694%,80.39856%,1.199341%);fill-opacity:1;" d="M 139.242188 278.53125 C 141.148438 280.265625 143.097656 282.601563 145.105469 284.3125 C 152.835938 290.898438 156.140625 293.847656 166.277344 299.03125 C 174.699219 303.335938 183.25 305.902344 192.410156 308.578125 C 194.0625 309.0625 200.378906 310.652344 201.515625 311.367188 C 196.742188 312.761719 191.632813 314.597656 187 316.089844 C 182.25 317.621094 179.878906 320.417969 175.277344 323.808594 C 171.15625 326.851563 156.628906 338.492188 153.40625 340.585938 C 151.019531 339.984375 139.695313 329.683594 137.074219 326.984375 C 132.253906 322.015625 127.644531 316.410156 123.5625 310.59375 C 122.046875 308.421875 116.628906 300.378906 115.960938 297.910156 L 123.09375 301.855469 C 128.515625 304.777344 142.070313 310.160156 147.632813 310.375 C 146.609375 308.316406 145.144531 306.546875 143.96875 304.144531 C 140.714844 297.476563 138.296875 285.433594 139.242188 278.53125 Z M 155.152344 344.058594 L 164.902344 336.359375 C 168.1875 333.808594 171.480469 331.265625 174.695313 328.710938 C 178.023438 326.066406 181.171875 323.699219 184.488281 321.054688 C 185.867188 319.953125 185.816406 320.175781 187.675781 320.746094 C 209.273438 327.378906 236.980469 331.460938 260.074219 331.269531 C 281.425781 331.09375 301.96875 327.824219 320.960938 322.464844 C 323.359375 321.789063 325.335938 321.21875 327.730469 320.449219 C 329.648438 319.835938 330.410156 321.089844 333.269531 322.949219 C 336.8125 325.261719 340.210938 327.621094 343.652344 330.015625 L 359.242188 340.589844 C 360.679688 341.527344 363.40625 343.246094 364.429688 344.261719 C 361.351563 345.753906 356.480469 347.277344 352.972656 348.488281 C 348.972656 349.867188 345.117188 351.101563 341.113281 352.378906 C 285.738281 370.046875 233.941406 369.503906 178.550781 352.246094 C 174.636719 351.027344 170.722656 349.792969 166.753906 348.402344 L 157.914063 345.265625 C 157.351563 345.0625 157.066406 344.96875 156.457031 344.746094 Z M 366.515625 310.136719 C 374.632813 309.410156 386.941406 303.824219 394.453125 299.734375 C 395.71875 299.046875 396.929688 298.125 398.199219 297.621094 C 396.730469 302.609375 385.703125 316.859375 382.65625 320.589844 C 379.941406 323.914063 366.132813 337.828125 362.507813 339.113281 L 333.546875 319.429688 C 331.003906 317.585938 331.015625 317.050781 327.367188 315.898438 C 325.363281 315.261719 313.621094 311.660156 312.65625 310.945313 C 324.613281 307.632813 337.511719 303.996094 347.859375 298.753906 C 357.769531 293.730469 361.609375 290.460938 368.894531 284.144531 L 374.933594 278.296875 C 375.691406 285.554688 373.574219 296.941406 370.230469 303.6875 C 369.046875 306.074219 367.5625 308.015625 366.515625 310.136719 "/>
<path style=" stroke:none;fill-rule:evenodd;fill:rgb(0.799561%,0.799561%,0.799561%);fill-opacity:1;" d="M 208.628906 355.082031 L 213.167969 355.824219 L 217.117188 333.292969 L 212.730469 332.484375 C 212.09375 333.722656 208.921875 352.492188 208.628906 355.082031 Z M 181.566406 348.519531 C 182.644531 349.09375 195.726563 352.769531 197.15625 352.9375 L 198.109375 349.289063 L 187.136719 346.183594 L 192.214844 328.136719 C 191.0625 327.476563 189.148438 327.046875 187.746094 326.773438 Z M 290.4375 358.089844 L 295.101563 357.507813 C 295.527344 356.675781 296.257813 351.601563 296.625 352.207031 L 305.433594 350.871094 L 308.117188 355.578125 L 313.050781 355.003906 C 312.375 353.078125 302.542969 336.933594 300.9375 333.597656 C 299.746094 333.648438 298.292969 333.84375 297.109375 334.039063 C 296.027344 334.214844 296.121094 334.085938 295.828125 334.941406 C 295.617188 335.558594 295.535156 336.304688 295.410156 336.828125 C 294.179688 342 290.976563 354.363281 290.4375 358.089844 Z M 297.328125 347.964844 C 297.582031 346.085938 298.480469 340.796875 299.300781 339.484375 L 303.238281 347.046875 C 301.960938 347.695313 298.96875 347.859375 297.328125 347.964844 Z M 324.125 344.679688 C 322.828125 344.929688 320.996094 345.585938 320.101563 346.300781 C 320.902344 349.636719 324.429688 352.015625 328.617188 351.683594 C 332.59375 351.367188 336.21875 349.394531 337.589844 346.808594 C 339.652344 342.917969 337.386719 338.75 334.46875 337.445313 C 330.792969 335.804688 324.085938 338.121094 322.398438 335.582031 C 321.359375 333.078125 328.019531 329.34375 330.339844 334.097656 L 334.679688 332.695313 C 334.339844 330.585938 332.3125 328.777344 330.523438 328.1875 C 328.175781 327.410156 325.128906 328.058594 323.121094 328.839844 C 317.578125 330.996094 316.601563 336.039063 319.460938 339.253906 C 323.3125 343.582031 331.785156 339.691406 333.394531 342.519531 C 334.867188 345.117188 331.933594 346.953125 329.984375 347.4375 C 326.570313 348.285156 325.492188 346.476563 324.125 344.679688 Z M 226.300781 357.761719 L 230.578125 358.078125 L 231.859375 343.519531 C 233.222656 344.945313 238.398438 357.0625 239.898438 358.945313 L 244.363281 359.300781 C 244.761719 357.800781 246.4375 337.355469 246.253906 336.476563 L 242.160156 336.117188 C 241.816406 338.613281 241.300781 349.964844 240.636719 350.949219 L 232.8125 335.386719 L 228.328125 334.898438 Z M 269.046875 351.410156 C 268 349.953125 265.597656 339.148438 264.3125 336.632813 L 257.453125 336.773438 L 258.226563 359.585938 L 262.371094 359.574219 C 262.832031 357.863281 261.980469 345.574219 261.957031 342.664063 C 262.007813 342.722656 262.074219 342.738281 262.09375 342.855469 C 262.113281 342.964844 262.195313 342.992188 262.222656 343.039063 C 262.890625 344.253906 266.867188 358.734375 266.988281 359.328125 L 271.371094 359.226563 L 273.421875 350.386719 C 273.894531 348.175781 274.550781 343.460938 275.46875 341.722656 L 276.074219 358.984375 L 280.214844 358.945313 C 280.585938 357.140625 280.050781 349.882813 279.96875 347.546875 C 279.835938 343.683594 279.726563 339.863281 279.554688 336.011719 C 278.074219 336.050781 274.558594 335.984375 273.308594 336.199219 C 272.144531 336.402344 272.144531 338.324219 271.589844 340.820313 C 271.0625 343.203125 269.925781 349.75 269.046875 351.410156 "/>
<path style=" stroke:none;fill-rule:evenodd;fill:rgb(99.598694%,80.39856%,1.199341%);fill-opacity:1;" d="M 256.320313 235.230469 C 259.246094 225.503906 266.480469 187.664063 276.097656 231.648438 C 280.5625 213.101563 294.789063 197.476563 302.472656 235.75 C 309.871094 195.832031 325.703125 204.007813 327.816406 230.203125 C 332.808594 202.128906 348.875 199.339844 349.238281 230.765625 C 355.839844 202.457031 361.117188 196.132813 371.023438 235.097656 L 369.003906 205.460938 L 368.988281 190.785156 C 378.988281 170.171875 369.804688 142.261719 344.199219 125.953125 C 339.210938 103.011719 325.128906 81.886719 293.03125 78.941406 C 283.339844 66.707031 271.835938 60.847656 256.542969 59.164063 C 241.082031 60.761719 229.402344 66.628906 219.613281 78.984375 C 187.519531 81.929688 173.433594 103.054688 168.445313 125.996094 C 142.839844 142.308594 133.65625 170.21875 143.65625 190.828125 L 143.644531 205.503906 L 141.621094 235.144531 C 151.527344 196.179688 156.808594 202.5 163.40625 230.808594 C 163.769531 199.382813 179.835938 202.171875 184.832031 230.246094 C 186.941406 204.054688 202.773438 195.878906 210.175781 235.796875 C 217.855469 197.519531 232.082031 213.144531 236.546875 231.691406 C 247.539063 185.4375 256.304688 235.0625 256.320313 235.230469 "/>
<path style=" stroke:none;fill-rule:evenodd;fill:rgb(4.699707%,60.398865%,28.599548%);fill-opacity:1;" d="M 364.757813 204.339844 L 364.742188 190.242188 C 374.355469 170.4375 365.53125 143.628906 340.933594 127.960938 C 336.140625 105.921875 322.609375 85.628906 291.777344 82.796875 C 282.464844 71.042969 271.414063 65.414063 256.722656 63.796875 C 241.871094 65.332031 230.652344 70.964844 221.246094 82.839844 C 190.414063 85.667969 176.886719 105.960938 172.089844 128.003906 C 147.492188 143.667969 138.671875 170.480469 148.28125 190.285156 L 148.265625 204.382813 C 251.316406 204.542969 278.542969 204.882813 364.757813 204.339844 Z M 282 110.453125 C 298.265625 101.179688 305.804688 101.101563 323.84375 109.554688 C 308.886719 94.132813 296.015625 93.789063 282 110.453125 Z M 239.078125 115.769531 C 255.34375 106.496094 262.886719 106.421875 280.921875 114.871094 C 265.964844 99.449219 253.09375 99.109375 239.078125 115.769531 Z M 323.277344 191.199219 C 339.539063 181.925781 347.082031 181.847656 365.117188 190.300781 C 350.164063 174.878906 337.292969 174.535156 323.277344 191.199219 Z M 239.972656 191.949219 C 256.234375 182.675781 263.777344 182.597656 281.8125 191.046875 C 266.859375 175.628906 253.988281 175.285156 239.972656 191.949219 Z M 209.800781 164.140625 C 226.066406 154.863281 233.609375 154.789063 251.644531 163.238281 C 236.6875 147.816406 223.816406 147.476563 209.800781 164.140625 Z M 182.199219 199.132813 C 198.464844 189.855469 206.007813 189.777344 224.042969 198.230469 C 209.085938 182.808594 196.214844 182.46875 182.199219 199.132813 Z M 154.636719 189.882813 C 170.898438 180.609375 178.441406 180.53125 196.476563 188.984375 C 181.523438 173.5625 168.652344 173.222656 154.636719 189.882813 Z M 177.097656 140.035156 C 193.359375 130.757813 200.902344 130.683594 218.9375 139.132813 C 203.984375 123.710938 191.113281 123.371094 177.097656 140.035156 Z M 238.960938 149.707031 C 255.226563 140.429688 262.769531 140.355469 280.804688 148.804688 C 265.847656 133.382813 252.976563 133.042969 238.960938 149.707031 Z M 267.285156 170.007813 C 283.550781 160.730469 291.09375 160.65625 309.128906 169.105469 C 294.175781 153.683594 281.304688 153.34375 267.285156 170.007813 Z M 298.636719 148.65625 C 314.898438 139.378906 322.441406 139.304688 340.476563 147.753906 C 325.523438 132.332031 312.652344 131.992188 298.636719 148.65625 Z M 270.539063 129.960938 C 286.804688 120.6875 294.347656 120.609375 312.382813 129.0625 C 297.425781 113.640625 284.554688 113.296875 270.539063 129.960938 Z M 212.527344 128.355469 C 228.792969 119.078125 236.335938 119.003906 254.371094 127.453125 C 239.414063 112.03125 226.546875 111.691406 212.527344 128.355469 Z M 203.109375 107.90625 C 219.375 98.628906 226.917969 98.554688 244.953125 107.003906 C 229.996094 91.582031 217.125 91.242188 203.109375 107.90625 "/>
<path style=" stroke:none;fill-rule:evenodd;fill:rgb(0.799561%,0.799561%,0.799561%);fill-opacity:1;" d="M 148.652344 147.574219 C 149.660156 148.792969 151.128906 149.554688 151.660156 150.621094 C 152.332031 150.933594 152.984375 151.714844 153.5625 152.222656 C 160.035156 157.890625 167.855469 165.800781 174.175781 171.238281 L 181.179688 177.703125 C 181.644531 178.238281 181.324219 177.753906 181.65625 178.394531 C 182.523438 178.839844 184.871094 181.046875 185.5625 181.78125 C 186.253906 182.523438 186.773438 182.914063 187.519531 183.566406 C 188.199219 184.152344 188.851563 184.941406 189.570313 185.464844 C 190.261719 185.894531 191.152344 186.859375 191.808594 187.5 C 192.589844 188.257813 193.59375 189.132813 194.113281 189.738281 C 194.972656 190.320313 196.652344 192.019531 197.492188 192.804688 L 210.269531 204.742188 C 211.066406 205.21875 219.617188 213.160156 220.164063 213.917969 C 221.0625 214.429688 224.21875 217.464844 225.160156 218.449219 C 225.957031 219.289063 226.8125 219.898438 227.671875 220.683594 L 232.40625 225.164063 C 233.949219 226.554688 238.871094 230.691406 239.445313 231.945313 C 237.84375 232.957031 236.554688 234.601563 235.035156 236.011719 L 187.316406 281.261719 C 186.34375 282.121094 185.660156 282.160156 186.03125 283.722656 C 186.773438 286.8125 188.292969 290.066406 190.070313 292.429688 C 191.800781 294.734375 195.894531 298.558594 199.761719 299.425781 L 243.84375 258.832031 C 243.523438 262.023438 240.472656 268.855469 239.171875 271.304688 C 237.046875 275.308594 234.835938 278.296875 232.335938 281.421875 L 226.1875 287.980469 C 223.050781 290.835938 215.191406 296.722656 214.5 297.394531 C 216.863281 297.195313 223.683594 294.628906 225.257813 296.6875 C 225.675781 298.296875 223.386719 301.253906 222.773438 302.417969 C 224.890625 301.863281 228.34375 298.816406 231.59375 299.753906 C 234.21875 300.511719 234.433594 305.050781 234.96875 307.871094 C 238.175781 306.898438 244.558594 298.210938 250.5625 305.460938 L 253.84375 309.984375 C 254.445313 309.53125 255.367188 308.429688 255.925781 307.757813 C 264.789063 297.128906 271.40625 303.808594 275.527344 305.34375 C 276.984375 303.898438 277.230469 302.234375 279.976563 301.429688 C 282.820313 300.589844 284.972656 301.605469 287.566406 302.054688 C 288.074219 293.59375 295.78125 297.707031 299.832031 297.613281 C 299.222656 297.132813 298.273438 296.226563 297.703125 295.703125 C 296.816406 294.890625 296.332031 294.394531 295.488281 293.683594 C 292.066406 290.804688 287.898438 286.214844 284.753906 283.234375 C 280.175781 278.886719 271.003906 266.191406 270.023438 260.03125 C 271.628906 260.980469 311.472656 298.589844 312.910156 299.429688 C 319.574219 297.484375 325.425781 290.578125 326.75 282.738281 C 326.636719 282.234375 314.027344 270.480469 313.335938 269.855469 C 308.722656 265.652344 304.53125 261.328125 299.917969 257.101563 L 276.378906 234.78125 C 275.371094 233.863281 273.992188 232.816406 273.152344 231.710938 L 293.257813 213.191406 C 293.988281 212.101563 296.621094 210.007813 297.714844 208.964844 C 298.605469 208.117188 301.609375 205.082031 302.398438 204.796875 C 302.890625 203.925781 303.445313 203.675781 304.1875 202.976563 C 304.894531 202.3125 305.28125 201.851563 305.960938 201.261719 C 310.101563 197.660156 315.363281 192.347656 319.035156 189.164063 C 319.75 188.542969 320.371094 188.070313 321.027344 187.414063 L 347.191406 163.230469 C 349.484375 161.183594 361.1875 149.902344 362.296875 149.328125 C 362.613281 148.832031 364.578125 146.941406 365.203125 146.632813 L 390.164063 123.460938 C 393.257813 120.53125 414.253906 101.503906 414.992188 100.117188 C 403.1875 100.195313 391.242188 100.695313 379.441406 100.808594 C 376.882813 100.835938 376.933594 101.511719 375.503906 102.8125 L 351.046875 125.960938 C 350.011719 126.894531 349.183594 128.046875 348.085938 128.726563 L 345.785156 130.929688 L 334.058594 141.996094 L 331.804688 144.097656 C 330.074219 146.28125 327.90625 147.746094 325.882813 149.894531 C 324.898438 150.941406 323.839844 151.796875 322.773438 152.773438 C 321.722656 153.734375 320.773438 154.757813 319.734375 155.710938 C 317.089844 158.136719 309.308594 165.789063 307.390625 167.304688 L 306.945313 167.867188 C 304.710938 169.929688 302.964844 171.679688 300.796875 173.660156 L 291.589844 182.40625 C 290.53125 183.359375 289.457031 184.257813 288.480469 185.277344 C 287.28125 186.53125 286.578125 187.148438 285.417969 188.195313 C 284.839844 188.714844 284.410156 189.085938 283.859375 189.628906 C 282.921875 190.554688 283.265625 190.578125 282.148438 191.101563 L 282.097656 191.160156 L 267.738281 204.824219 L 256.335938 215.679688 C 255.796875 215.390625 245.3125 205.5 244.949219 204.949219 L 235.273438 195.878906 C 232.292969 192.644531 228.488281 189.789063 225.523438 186.683594 C 222.390625 183.398438 219.101563 180.828125 215.976563 177.535156 C 213.972656 175.425781 207.902344 170.207031 206.230469 168.339844 L 196.660156 159.222656 C 192.808594 155.304688 186.671875 149.886719 182.222656 145.5 L 167.597656 131.71875 L 165.128906 129.222656 C 164.175781 128.75 154.65625 119.355469 152.503906 117.386719 L 140.050781 105.664063 C 138.820313 104.398438 138.0625 103.710938 136.859375 102.621094 C 135.222656 101.136719 135.765625 100.839844 132.722656 100.808594 C 126.761719 100.738281 100.714844 99.902344 97.414063 100.15625 C 97.902344 100.769531 99.6875 102.453125 100.464844 103.132813 L 110.179688 112.105469 C 114.527344 115.980469 118.699219 119.882813 122.996094 123.964844 L 148.652344 147.574219 "/>
<path style=" stroke:none;fill-rule:evenodd;fill:rgb(96.899414%,92.498779%,7.499695%);fill-opacity:1;" d="M 313.40625 295.851563 C 312.324219 295.046875 307.539063 290.585938 307.261719 289.96875 C 311.066406 286.644531 312.175781 285.984375 315.390625 281.730469 L 317.894531 278.410156 C 318.914063 279.078125 321.589844 282.128906 323.382813 283.425781 C 322.882813 288.195313 317.238281 295.109375 313.40625 295.851563 Z M 189.238281 283.386719 C 191.019531 282.117188 193.441406 279.25 194.777344 278.417969 L 195.390625 279.132813 C 195.675781 279.527344 195.738281 279.667969 195.984375 280.03125 C 196.375 280.601563 196.699219 281.019531 197.148438 281.617188 C 200.097656 285.542969 201.523438 286.722656 205.371094 289.96875 C 204.855469 290.941406 200.433594 294.71875 199.253906 295.894531 C 195.480469 294.929688 189.554688 288.359375 189.238281 283.386719 Z M 290.972656 275.011719 C 294.328125 271.636719 294.621094 272.753906 299.371094 266.460938 C 300.1875 265.382813 300.910156 264.136719 301.742188 263.148438 L 312.089844 272.84375 C 313 273.667969 314.789063 275.09375 315.433594 276.257813 C 313.246094 280.210938 308.363281 285.773438 304.878906 287.867188 C 303.617188 287.101563 302.605469 285.808594 301.410156 284.769531 Z M 207.738281 287.8125 C 204.085938 285.566406 199.464844 280.378906 197.191406 276.257813 C 197.554688 275.558594 209.511719 264.222656 210.78125 263.152344 C 211.488281 263.808594 214.105469 267.824219 215.714844 269.527344 C 216.835938 270.71875 217.460938 271.289063 218.5625 272.410156 C 219.367188 273.230469 220.957031 274.160156 221.648438 275.011719 C 220.78125 276.09375 219.410156 277.226563 218.351563 278.152344 Z M 288.484375 272.769531 C 287.066406 271.671875 285.632813 270.191406 284.335938 268.988281 C 285.601563 267.527344 292.320313 262.882813 295.152344 257.042969 L 299.40625 260.765625 C 298.472656 263.816406 291.0625 271.835938 288.484375 272.769531 Z M 213.265625 260.804688 C 214.054688 259.882813 216.582031 257.4375 217.484375 257.050781 C 219.011719 260.171875 225.570313 267.648438 228.261719 268.722656 C 227.742188 269.730469 224.867188 272.355469 223.9375 272.769531 C 222.914063 272.144531 221.648438 271.125 220.824219 270.398438 C 219.144531 268.925781 216.746094 266.121094 215.425781 264.328125 C 214.113281 262.539063 214.117188 262.660156 213.265625 260.804688 Z M 282.007813 266.71875 L 270.441406 256.070313 L 271.976563 254.761719 C 272.570313 254.304688 273.109375 253.855469 273.625 253.421875 C 277.9375 249.789063 278.820313 247.351563 281.507813 244.085938 C 282.28125 244.472656 292.304688 253.929688 292.941406 254.824219 C 291.625 258.050781 284.753906 265.449219 282.007813 266.71875 Z M 219.683594 254.824219 L 225.382813 249.285156 C 227.28125 247.554688 229.285156 245.660156 231.054688 243.96875 C 233.972656 247.527344 234.148438 249.105469 239.015625 253.449219 C 239.957031 254.289063 241.28125 255.054688 242.277344 256.003906 L 230.664063 266.683594 C 228.074219 265.777344 220.761719 257.734375 219.683594 254.824219 Z M 233.398438 241.574219 C 235.402344 240.148438 240.261719 234.578125 241.882813 233.914063 C 243.8125 235.726563 245.992188 237.542969 247.875 239.355469 C 249.027344 240.46875 249.828125 241.128906 250.855469 242.109375 C 251.75 242.964844 253.394531 244.390625 253.910156 245.101563 C 253.453125 245.925781 245.378906 253.308594 244.621094 253.761719 C 241.414063 252.425781 234.820313 245.203125 233.398438 241.574219 Z M 270.789063 229.441406 L 258.648438 217.933594 C 259.125 217.101563 272.980469 204.015625 273.78125 203.640625 C 274.617188 204.628906 275.410156 205.945313 276.203125 207.035156 C 277.132813 208.308594 277.851563 209.210938 278.875 210.34375 C 282.449219 214.304688 282.722656 213.800781 285.097656 216.1875 C 284.601563 217.207031 279.226563 221.929688 278.054688 222.953125 C 276.652344 224.1875 271.992188 228.941406 270.789063 229.441406 Z M 227.472656 216.1875 C 229.984375 213.785156 230.40625 213.882813 233.664063 210.464844 C 235.671875 208.359375 238.070313 204.390625 238.890625 203.632813 C 240.222656 204.449219 267.386719 230.558594 269.222656 232.21875 C 270.695313 233.550781 278.671875 240.890625 279.207031 241.863281 C 277.34375 245.730469 271.546875 251.890625 268.050781 253.761719 Z M 276.058594 201.21875 C 277.351563 199.996094 279.046875 198.703125 280.183594 197.191406 C 281.269531 197.839844 282.011719 199.589844 282.824219 200.660156 C 283.765625 201.894531 284.570313 203.007813 285.621094 204.097656 L 290.179688 208.515625 C 290.796875 208.996094 291.4375 209.398438 291.9375 209.957031 C 291.527344 210.648438 288.296875 213.574219 287.53125 214.09375 C 283.996094 211.898438 277.394531 204.695313 276.058594 201.21875 Z M 224.976563 214.101563 C 224.152344 213.394531 221.058594 210.644531 220.691406 209.957031 C 222.15625 208.492188 224.058594 207.230469 226.925781 204.222656 C 228.53125 202.539063 230.785156 199.421875 232.085938 197.214844 C 233.003906 197.640625 235.800781 200.503906 236.558594 201.285156 C 235.210938 204.613281 228.398438 212.28125 224.976563 214.101563 Z M 282.777344 195.003906 C 283.3125 194.335938 284.839844 192.851563 285.613281 192.132813 C 287.222656 190.640625 294.371094 183.765625 294.964844 183.542969 C 295.800781 184.421875 296.707031 186.066406 297.445313 187.039063 C 301.804688 192.8125 306.003906 195.71875 306.589844 196.496094 L 294.46875 207.734375 C 291.636719 206.875 284.054688 198.1875 282.777344 195.003906 Z M 218.203125 207.753906 L 206.039063 196.496094 C 206.691406 195.558594 209.875 193.578125 212.300781 190.597656 C 213.261719 189.414063 214.140625 188.378906 215.074219 187.140625 C 215.96875 185.953125 216.753906 184.472656 217.703125 183.523438 C 218.871094 184.148438 219.664063 185.316406 220.707031 186.265625 L 226.882813 192.058594 C 228.011719 193.089844 228.746094 193.832031 229.84375 195.003906 C 229.226563 196.679688 225.898438 200.765625 224.785156 202.089844 C 223.636719 203.457031 219.933594 207.003906 218.203125 207.753906 Z M 203.820313 194.222656 C 202.691406 193.773438 199.941406 191.035156 199.023438 190.015625 C 199.695313 189.101563 201.363281 188.035156 202.253906 187.269531 C 204.171875 185.609375 206.636719 182.714844 208.132813 180.695313 C 208.980469 179.554688 209.808594 178.082031 210.726563 177.03125 C 211.671875 177.457031 214.535156 180.195313 215.316406 181.292969 C 214.191406 183.808594 209.433594 189.601563 207.203125 191.476563 C 206.222656 192.300781 204.78125 193.328125 203.820313 194.222656 Z M 297.285156 181.292969 C 297.871094 180.449219 300.902344 177.347656 301.945313 177.0625 C 306.847656 183.605469 304.761719 181.53125 310.296875 187.144531 C 311.28125 188.140625 312.875 189.03125 313.601563 190.015625 C 312.230469 191.515625 310.695313 192.839844 309.226563 194.222656 C 306.246094 193.320313 298.757813 184.578125 297.285156 181.292969 Z M 304.15625 174.496094 C 307.347656 172.074219 315.800781 163 317.941406 161.785156 C 318.875 164.222656 324.0625 170.226563 326.304688 172.136719 C 326.921875 172.667969 329.4375 174.609375 329.761719 175.0625 L 316.214844 187.75 C 314.605469 187.265625 310.519531 183.242188 309.441406 182.023438 C 307.753906 180.117188 305.3125 177.179688 304.15625 174.496094 Z M 196.519531 187.707031 L 186.300781 178.304688 C 185.074219 177.144531 184.144531 176.367188 182.863281 175.0625 C 184.625 173.042969 191.253906 168.714844 194.703125 161.800781 C 195.554688 162.164063 195.824219 162.726563 196.507813 163.359375 L 201.636719 168.199219 C 203.933594 170.28125 206.039063 172.285156 208.390625 174.5625 C 208.152344 176.175781 204.324219 180.585938 203.292969 181.832031 C 202.183594 183.175781 198.398438 187.070313 196.519531 187.707031 Z M 180.570313 172.785156 C 179.574219 172.367188 176.730469 169.550781 175.859375 168.582031 C 177.015625 167.179688 180.824219 165.132813 185.371094 158.925781 C 186.210938 157.785156 187.097656 156.28125 187.96875 155.234375 C 189.316406 156.445313 191.308594 158.128906 192.476563 159.609375 C 191.589844 161.511719 188.589844 165.503906 187.3125 166.851563 C 185.230469 169.042969 183.242188 171.070313 180.570313 172.785156 Z M 320.148438 159.609375 C 320.53125 159.0625 323.984375 155.722656 324.625 155.324219 L 327.265625 158.960938 C 332.8125 166.238281 334.886719 166.425781 336.761719 168.582031 C 336.339844 169.214844 332.933594 172.4375 332.101563 172.796875 C 328.546875 170.890625 321.402344 162.878906 320.148438 159.609375 Z M 327.050781 153.128906 C 327.472656 152.355469 332.371094 147.808594 333.359375 146.910156 L 339.824219 140.976563 C 341.941406 143.128906 343.234375 147.558594 350.972656 153.691406 L 351.855469 154.621094 C 351.144531 155.5625 339.789063 165.976563 339.078125 166.300781 C 334.449219 163.589844 330.101563 158.140625 327.050781 153.128906 Z M 173.34375 166.300781 L 160.726563 154.621094 C 161.078125 154.09375 165.546875 150.53125 167.3125 148.34375 L 172.84375 140.972656 C 173.714844 141.621094 175.3125 143.058594 176.089844 143.902344 C 177.898438 145.855469 185.078125 152.121094 185.574219 153.128906 C 184.003906 156.601563 176.414063 165.292969 173.34375 166.300781 Z M 158.117188 152.339844 C 157.464844 151.710938 156.722656 150.902344 155.996094 150.285156 C 155.203125 149.605469 154.425781 149.03125 153.722656 148.140625 C 153.929688 147.824219 158.664063 143.839844 160.355469 141.882813 C 162.5625 139.332031 165.015625 135.421875 165.867188 134.464844 C 166.519531 134.722656 169.957031 138.042969 170.429688 138.671875 C 169.171875 142.179688 161.0625 151.414063 158.117188 152.339844 Z M 342.179688 138.671875 C 342.855469 137.746094 345.910156 134.828125 346.859375 134.417969 C 348.585938 137.910156 352.5625 142.414063 355.398438 145.035156 L 358.855469 148.140625 C 358.417969 148.75 354.941406 151.992188 354.28125 152.320313 C 350.78125 150.566406 343.15625 141.679688 342.179688 138.671875 Z M 349.078125 132.191406 C 349.519531 131.570313 351.265625 129.925781 352.035156 129.199219 L 361.203125 120.5 C 362.203125 121.339844 363.183594 123.160156 363.980469 124.234375 C 364.933594 125.523438 366 126.816406 366.992188 127.957031 C 369.476563 130.808594 371.261719 131.6875 373.488281 133.660156 L 373.746094 133.910156 C 373.777344 133.941406 373.839844 134.019531 373.863281 134.042969 C 373.890625 134.070313 373.945313 134.132813 373.976563 134.183594 L 361.261719 145.839844 C 357.726563 143.671875 350.933594 136.511719 349.078125 132.191406 Z M 151.109375 145.878906 L 138.644531 134.183594 C 138.898438 133.785156 138.652344 134.089844 139.007813 133.75 C 140.347656 132.476563 142.871094 131.160156 145.511719 128.039063 C 147.371094 125.84375 149.636719 123.265625 151.160156 120.496094 C 151.957031 120.867188 162.675781 131.140625 163.546875 132.191406 C 162.679688 134.324219 159.566406 138.027344 158.203125 139.730469 C 156.992188 141.242188 153.011719 145.132813 151.109375 145.878906 Z M 363.742188 118.230469 C 364.5 117.371094 367.449219 114.449219 368.238281 114.0625 C 370.113281 116.089844 372.367188 120.585938 377.21875 124.699219 L 380.96875 127.703125 C 380.054688 128.8125 377.574219 131.046875 376.464844 131.855469 C 372.78125 130.582031 365.695313 122.261719 363.742188 118.230469 Z M 136.207031 131.859375 C 135.554688 131.503906 132.113281 128.328125 131.65625 127.703125 C 131.871094 127.414063 131.730469 127.566406 132.046875 127.289063 L 135.269531 124.769531 C 136.558594 123.742188 137.527344 122.554688 138.675781 121.449219 C 140.878906 119.335938 143.699219 114.671875 144.433594 114.050781 C 146.050781 115.246094 147.363281 116.6875 148.886719 118.230469 C 148.257813 120.292969 144.636719 124.351563 143.347656 125.867188 C 141.992188 127.460938 138.457031 130.828125 136.207031 131.859375 Z M 383.441406 125.324219 C 379.445313 123.484375 372.066406 115.261719 370.652344 111.75 C 371.320313 110.617188 372.460938 109.867188 373.449219 108.988281 C 374.546875 108.007813 378.101563 104.082031 379.242188 103.867188 C 380.253906 103.679688 383.484375 103.710938 384.679688 103.703125 C 392.117188 103.660156 399.59375 103.320313 407.027344 103.351563 C 406.445313 104.503906 405.039063 105.605469 404.1875 106.328125 L 386.546875 122.585938 C 385.4375 123.621094 384.78125 124.589844 383.441406 125.324219 Z M 105.617188 103.347656 L 133.199219 103.84375 C 134.339844 103.992188 141.714844 111.34375 141.972656 111.75 C 140.363281 115.523438 133.261719 123.292969 129.230469 125.316406 C 128.199219 124.890625 110.828125 108.445313 108.570313 106.488281 L 105.996094 104 C 105.945313 103.929688 105.671875 103.410156 105.617188 103.347656 "/>
</g>
</svg>
